<svg width="107.17mm" height="42.69mm" version="1.1" viewBox="0 0 107.17 42.69" xmlns="http://www.w3.org/2000/svg">
 <g transform="translate(-93.812 -96.212)">
  <path d="m96.336 136.17c-2.3828-2.5194-2.5696-2.8916-2.4288-4.8377l0.15265-2.1083 4.6572-0.30005 0.15227 2.3829 0.15228 2.3829h19.847l0.15227-2.3829 0.15228-2.3829 4.6572 0.30005 0.15471 2.1535c0.14553 2.0244-6e-3 2.3145-2.5294 4.8377l-2.6842 2.6842h-19.854zm0.0285-12.374-2.5529-2.6993v-19.561l5.3246-5.3246 12.347 0.13278 12.347 0.13296 0.13277 12.347 0.13278 12.347-5.3246 5.3246h-19.854zm22.504-12.434v-9.9236h-19.847l-0.13539 9.4121c-0.0744 5.1766-0.0238 9.7028 0.11252 10.058 0.19448 0.50686 2.3616 0.61704 10.059 0.51146l9.811-0.13465zm11.236 12.434-2.5529-2.6993v-4.2798c0-4.5318 0.32839-5.599 2.4175-7.8562 2.4552-2.6528 3.2026-2.8087 13.463-2.8087h9.4792l-0.3023-4.7137-22.824-0.49618v-4.4656l22.774-0.26705 2.6302 2.5976 2.6302 2.5975v19.915l-5.2411 5.176h-19.92zm22.648-7.1828c0.10464-3.4034-0.03-4.7825-0.49619-5.0782-1.0643-0.67527-18.456-0.51701-19.147 0.17421-0.6389 0.63892-0.86002 8.8981-0.25445 9.5037 0.18754 0.18754 4.709 0.28057 10.048 0.20676l9.7066-0.13427zm9.2713 9.2846c-0.13822-0.36026-0.19202-7.1274-0.11946-15.038l0.13183-14.383h4.4656v29.771l-2.1133 0.15284c-1.409 0.10183-2.197-0.0654-2.3646-0.50221zm11.248-2.1018-2.5529-2.6993v-9.4839l1.8179-2.0122c0.99983-1.1067 2.2837-2.2796 2.853-2.6064 0.65996-0.37881 4.5421-0.68412 10.711-0.84228l9.6755-0.24809v-4.4656l-22.824-0.49618v-4.4656l22.911-0.26592 2.5613 2.7082 2.5613 2.7082v19.692l-5.2411 5.176h-19.92zm22.648-7.1828c0.10464-3.4034-0.03-4.7825-0.49619-5.0782-1.0643-0.67527-18.456-0.51701-19.147 0.17421-0.6389 0.63892-0.86002 8.8981-0.25444 9.5037 0.18753 0.18754 4.709 0.28057 10.048 0.20676l9.7066-0.13427z" style="fill:#fff;stroke-width:1.8753"/>
 </g>
</svg>
